<svg width="200" height="222" xmlns="http://www.w3.org/2000/svg">
 <!-- Created with Method Draw - http://github.com/duopixel/Method-Draw/ -->

 <g>
  <title>background</title>
  <rect fill="transparent" id="canvas_background" height="224" width="202" y="-1" x="-1"/>
  <g display="none" overflow="visible" y="0" x="0" height="100%" width="100%" id="canvasGrid">
   <rect fill="url(#gridpattern)" stroke-width="0" height="200" width="200"/>
  </g>
 </g>
 <g>
  <title>Layer 1</title>
  <ellipse stroke="#000" ry="74.71874" rx="73" id="svg_3" cy="114.19083" cx="101.50497" stroke-opacity="null" stroke-width="0" fill="#ffffff"/>
  <path fill-opacity="0" id="svg_4" d="m229.40789,217.99816l0,-32.81253l53.12504,32.81253l-53.12504,0z" stroke-opacity="null" stroke-width="0" stroke="#000" fill="#ffffff"/>
  <path stroke="#000" id="svg_11" d="m46.11691,105.05527l8.83929,-10.48087l9.38984,11.13358l9.38984,-11.13358l8.83938,10.48087l-9.38985,11.13367l9.38985,11.13367l-8.83938,10.48097l-9.38984,-11.13367l-9.38984,11.13367l-8.83929,-10.48097l9.38977,-11.13367l-9.38977,-11.13367z" fill-opacity="null" stroke-opacity="null" stroke-width="0" fill="#36393f"/>
  <path stroke="#000" id="svg_13" d="m118.55588,105.5761l8.8393,-10.48087l9.38984,11.13357l9.38985,-11.13357l8.83937,10.48087l-9.38984,11.13367l9.38984,11.13367l-8.83937,10.48097l-9.38985,-11.13367l-9.38984,11.13367l-8.8393,-10.48097l9.38977,-11.13367l-9.38977,-11.13367z" fill-opacity="null" stroke-opacity="null" stroke-width="0" fill="#36393f"/>
  <path transform="rotate(-20.844253540039062 104.2842254638673,163.97180175781256) " stroke="#000" id="svg_14" d="m78.06221,152.12716c-0.49066,1.64146 0.89905,3.20349 1.98385,4.62149c2.31115,2.50112 4.99252,4.90837 8.3575,6.85222c2.29601,1.23173 4.36477,2.65025 6.96458,3.62617c3.39884,1.49254 7.04831,2.71477 10.83251,3.73121c2.8138,0.7992 5.76467,1.36619 8.77959,1.73806c0.87695,0.14815 3.32877,0.56656 1.8035,-0.41513c-1.26519,-0.34816 -2.61113,-0.6022 -3.88328,-0.96531c-6.17575,-1.65256 -12.73822,-3.10453 -17.72035,-6.11948c-0.82555,-0.71453 1.58401,0.38594 1.9992,0.68772c4.1564,1.92854 8.90476,3.22166 13.58765,4.49896c2.38224,0.51439 4.98626,1.61086 7.51714,0.83277c2.18633,-0.54444 -0.52285,-0.6279 -1.48884,-0.83527c-4.29367,-0.79568 -8.63794,-1.56054 -12.57846,-2.96846c-2.2501,-0.5365 -4.14124,-1.52418 -6.1626,-2.33826c-2.18378,-0.9831 -4.18243,-2.13176 -6.30842,-3.16852c-1.3913,-0.68754 -2.77365,-1.3815 -3.92549,-2.24323c-1.94784,-1.27032 -3.83691,-2.57677 -5.60236,-3.95628c-1.15338,-0.84863 -2.45092,-1.62559 -3.26165,-2.64335l-0.89408,-0.9353zm45.34461,16.03268c-0.26622,-0.00547 -0.54106,0.03251 -0.77129,0.13254c-1.71908,0.56018 -1.35071,1.60052 -2.33304,2.40078c-0.73675,0.64021 -1.59629,0.96031 -2.8242,1.20039c0.24558,0.3201 0.73675,0.80026 0.73675,1.20039c0,0.88028 -1.59629,1.68054 -2.8242,1.60052c-0.49117,-0.08003 -1.59629,-0.48016 -1.96466,0c-0.12279,0.16005 -0.12279,0.3201 0,0.40013c0,0.3201 0.61396,0.48016 1.10512,0.64021c1.35071,0.24008 2.82421,-0.08003 3.92933,-0.56018c0.85954,-0.3201 1.4735,-0.88028 1.71908,-1.52049l0.24558,-1.04033c0.12279,-0.3201 0.61396,-0.40013 1.22792,-0.96031c0.73675,-0.64021 1.4735,-1.76057 2.45583,-2.24073c0.36837,-0.16005 0.73675,-0.24008 1.22791,-0.3201c-0.24558,-0.24008 -0.49117,-0.40013 -0.73675,-0.6402c-0.24558,-0.08003 -0.49116,-0.24008 -0.73675,-0.24008c-0.13814,-0.03001 -0.29691,-0.04924 -0.45663,-0.05252zm5.19945,3.02098c-0.46164,-0.00334 -0.94396,0.06252 -1.42745,0.15255l0.98233,0.40013c-0.24559,0.3201 -0.85954,0.96031 -0.73675,1.36044c0.1228,0.80026 1.84187,0.80026 2.57862,0.3201c0.85954,-0.64021 0.85954,-1.60052 -0.36837,-2.08067c-0.32233,-0.10503 -0.66933,-0.14995 -1.02838,-0.15255zm-2.36758,0.39263c-0.09612,0.00022 -0.19007,0.00081 -0.28395,0.0025c-0.68049,0.0243 -1.36071,0.05775 -2.04141,0.07753c-0.42766,0.00359 -0.86419,-0.00055 -1.2778,0.08003c-0.56101,0.23337 -0.93605,0.62027 -1.15501,1.02283c-0.02947,0.05801 -0.05447,0.11762 -0.07291,0.17756c0.68289,0.20157 1.44492,0.17997 2.17571,0.16255c0.44281,-0.00772 0.88575,0.0283 1.32769,0.04251c0.31608,0.00912 0.63141,0.03725 0.9478,0.03001c0.38795,-0.00839 0.74722,-0.15174 0.95163,-0.36512c0.17669,-0.18236 0.34385,-0.37098 0.4528,-0.57519c0.088,-0.18328 0.10425,-0.43799 -0.18802,-0.54768c-0.25436,-0.09155 -0.54815,-0.10821 -0.83652,-0.10753l0,0zm0.44896,1.84059c-0.1228,0.08003 -0.24558,0.08003 -0.36838,0.16005c-0.12279,0.40013 1.4735,1.36044 1.71908,0.48016c-0.61396,-0.16005 -0.98234,-0.3201 -1.35071,-0.64021l0,0z" fill-opacity="null" stroke-opacity="null" stroke-width="0" fill="#36393f"/>
  <path id="svg_26" d="m429.01627,63.75431c-0.01387,0.07122 0.02542,0.139 0.0561,0.20053c0.06535,0.10852 0.14118,0.21297 0.23633,0.29732c0.06493,0.05344 0.12343,0.11499 0.19695,0.15734c0.09611,0.06476 0.19931,0.11779 0.30632,0.1619c0.07957,0.03468 0.16301,0.05928 0.24827,0.07541c0.0248,0.00643 0.09413,0.02458 0.051,-0.01801c-0.03578,-0.01511 -0.07384,-0.02613 -0.10981,-0.04188c-0.17464,-0.0717 -0.36021,-0.13471 -0.5011,-0.26552c-0.02334,-0.031 0.04479,0.01675 0.05653,0.02984c0.11754,0.08368 0.25181,0.13979 0.38423,0.19521c0.06737,0.02232 0.141,0.0699 0.21257,0.03613c0.06183,-0.02362 -0.01479,-0.02724 -0.0421,-0.03624c-0.12142,-0.03452 -0.24426,-0.06771 -0.35569,-0.1288c-0.06363,-0.02328 -0.11711,-0.06613 -0.17427,-0.10146c-0.06175,-0.04266 -0.11827,-0.0925 -0.17839,-0.13748c-0.03934,-0.02983 -0.07843,-0.05994 -0.11101,-0.09733c-0.05508,-0.05512 -0.1085,-0.11181 -0.15842,-0.17166c-0.03262,-0.03682 -0.06931,-0.07053 -0.09223,-0.11469l-0.02528,-0.04058zm1.28226,0.69566c-0.00753,-0.00024 -0.0153,0.00141 -0.02181,0.00575c-0.04861,0.02431 -0.0382,0.06945 -0.06597,0.10417c-0.02083,0.02778 -0.04514,0.04167 -0.07986,0.05208c0.00694,0.01389 0.02083,0.03472 0.02083,0.05208c0,0.0382 -0.04514,0.07292 -0.07986,0.06945c-0.01389,-0.00347 -0.04514,-0.02083 -0.05556,0c-0.00347,0.00694 -0.00347,0.01389 0,0.01736c0,0.01389 0.01736,0.02083 0.03125,0.02778c0.0382,0.01042 0.07986,-0.00347 0.11111,-0.02431c0.02431,-0.01389 0.04167,-0.0382 0.04861,-0.06597l0.00694,-0.04514c0.00347,-0.01389 0.01736,-0.01736 0.03472,-0.04167c0.02083,-0.02778 0.04167,-0.07639 0.06945,-0.09722c0.01042,-0.00694 0.02083,-0.01042 0.03472,-0.01389c-0.00694,-0.01042 -0.01389,-0.01736 -0.02083,-0.02778c-0.00694,-0.00347 -0.01389,-0.01042 -0.02083,-0.01042c-0.00391,-0.0013 -0.0084,-0.00214 -0.01291,-0.00228zm0.14703,0.13108c-0.01305,-0.00014 -0.02669,0.00271 -0.04037,0.00662l0.02778,0.01736c-0.00694,0.01389 -0.02431,0.04167 -0.02083,0.05903c0.00347,0.03472 0.05208,0.03472 0.07292,0.01389c0.02431,-0.02778 0.02431,-0.06945 -0.01042,-0.09028c-0.00911,-0.00456 -0.01893,-0.00651 -0.02908,-0.00662zm-0.06695,0.01704c-0.00272,0.00001 -0.00537,0.00004 -0.00803,0.00011c-0.01924,0.00105 -0.03848,0.00251 -0.05773,0.00336c-0.01209,0.00016 -0.02444,-0.00002 -0.03613,0.00347c-0.01586,0.01013 -0.02647,0.02691 -0.03266,0.04438c-0.00083,0.00252 -0.00154,0.0051 -0.00206,0.0077c0.01931,0.00875 0.04086,0.00781 0.06152,0.00705c0.01252,-0.00033 0.02505,0.00123 0.03754,0.00184c0.00894,0.0004 0.01786,0.00162 0.0268,0.0013c0.01097,-0.00036 0.02113,-0.00658 0.02691,-0.01584c0.005,-0.00791 0.00972,-0.0161 0.0128,-0.02496c0.00249,-0.00795 0.00295,-0.019 -0.00532,-0.02376c-0.00719,-0.00397 -0.0155,-0.0047 -0.02366,-0.00467l0,0zm0.0127,0.07986c-0.00347,0.00347 -0.00694,0.00347 -0.01042,0.00694c-0.00347,0.01736 0.04167,0.05903 0.04861,0.02083c-0.01736,-0.00694 -0.02778,-0.01389 -0.0382,-0.02778l0,0z" fill-opacity="0" stroke-opacity="null" stroke-width="0" stroke="#000" fill="#ffffff"/>
 </g>
</svg>